<?xml version="1.0" encoding="UTF-8" standalone="no"?>
<svg
   xmlns:osb="http://www.openswatchbook.org/uri/2009/osb"
   xmlns:dc="http://purl.org/dc/elements/1.1/"
   xmlns:cc="http://creativecommons.org/ns#"
   xmlns:rdf="http://www.w3.org/1999/02/22-rdf-syntax-ns#"
   xmlns:svg="http://www.w3.org/2000/svg"
   xmlns="http://www.w3.org/2000/svg"
   xmlns:xlink="http://www.w3.org/1999/xlink"
   xmlns:sodipodi="http://sodipodi.sourceforge.net/DTD/sodipodi-0.dtd"
   xmlns:inkscape="http://www.inkscape.org/namespaces/inkscape"
   id="svg8"
   version="1.1"
   viewBox="0 0 210 297"
   height="297mm"
   width="210mm"
   sodipodi:docname="logo.svg"
   inkscape:version="0.92.4 (5da689c313, 2019-01-14)">
  <sodipodi:namedview
     pagecolor="#ffffff"
     bordercolor="#666666"
     borderopacity="1"
     objecttolerance="10"
     gridtolerance="10"
     guidetolerance="10"
     inkscape:pageopacity="0"
     inkscape:pageshadow="2"
     inkscape:window-width="1366"
     inkscape:window-height="705"
     id="namedview870"
     showgrid="false"
     inkscape:snap-global="false"
     inkscape:zoom="0.36876263"
     inkscape:cx="428.61682"
     inkscape:cy="753.70272"
     inkscape:window-x="-8"
     inkscape:window-y="-8"
     inkscape:window-maximized="1"
     inkscape:current-layer="svg8" />
  <defs
     id="defs2">
    <linearGradient
       id="linearGradient6757">
      <stop
         id="stop6753"
         offset="0"
         style="stop-color:#ffffff;stop-opacity:1;" />
      <stop
         id="stop6755"
         offset="1"
         style="stop-color:#ffffff;stop-opacity:0;" />
    </linearGradient>
    <linearGradient
       id="linearGradient6709">
      <stop
         id="stop6705"
         offset="0"
         style="stop-color:#ffff00;stop-opacity:1;" />
      <stop
         id="stop6707"
         offset="1"
         style="stop-color:#ffff00;stop-opacity:0;" />
    </linearGradient>
    <linearGradient
       osb:paint="solid"
       id="linearGradient6075">
      <stop
         id="stop6073"
         offset="0"
         style="stop-color:#2b2200;stop-opacity:1;" />
    </linearGradient>
    <linearGradient
       gradientTransform="matrix(0.40499818,-0.01403336,-0.00298981,0.48152015,14.536287,-9.0974752)"
       gradientUnits="userSpaceOnUse"
       y2="227.21997"
       x2="325.10193"
       y1="227.21997"
       x1="79.962936"
       id="linearGradient6713"
       xlink:href="#linearGradient6709" />
    <radialGradient
       gradientUnits="userSpaceOnUse"
       gradientTransform="matrix(0.60860521,0,0,0.72084576,-124.15731,49.357067)"
       r="46.380566"
       fy="120.97725"
       fx="209.51064"
       cy="120.97725"
       cx="209.51064"
       id="radialGradient6761"
       xlink:href="#linearGradient6757" />
    <linearGradient
       inkscape:collect="always"
       xlink:href="#linearGradient6709"
       id="linearGradient1468"
       gradientUnits="userSpaceOnUse"
       gradientTransform="matrix(0.41414773,-0.01403336,-0.03402293,0.48152015,-171.37888,-23.113221)"
       x1="79.962936"
       y1="227.21997"
       x2="325.10193"
       y2="227.21997" />
    <radialGradient
       inkscape:collect="always"
       xlink:href="#linearGradient6757"
       id="radialGradient1472"
       gradientUnits="userSpaceOnUse"
       gradientTransform="matrix(0.37227715,0,0,0.44379194,-52.777633,2.827888)"
       cx="209.51064"
       cy="120.97725"
       fx="209.51064"
       fy="120.97725"
       r="46.380566" />
    <linearGradient
       inkscape:collect="always"
       xlink:href="#linearGradient6709"
       id="linearGradient1509"
       gradientUnits="userSpaceOnUse"
       gradientTransform="matrix(0.25291734,-0.00870912,-0.02077759,0.29883177,8.207625,-36.329832)"
       x1="79.962936"
       y1="227.21997"
       x2="325.10193"
       y2="227.21997" />
  </defs>
  <metadata
     id="metadata5">
    <rdf:RDF>
      <cc:Work
         rdf:about="">
        <dc:format>image/svg+xml</dc:format>
        <dc:type
           rdf:resource="http://purl.org/dc/dcmitype/StillImage" />
        <dc:title></dc:title>
      </cc:Work>
    </rdf:RDF>
  </metadata>
  <flowRoot
     xml:space="preserve"
     id="flowRoot965"
     style="fill:black;fill-opacity:1;stroke:none;font-family:sans-serif;font-style:italic;font-weight:bold;font-size:40px;line-height:1.25;letter-spacing:0px;word-spacing:0px;-inkscape-font-specification:'sans-serif Bold Italic';font-stretch:normal;font-variant:normal"><flowRegion
       id="flowRegion967"><rect
         id="rect969"
         width="0"
         height="64.334129"
         x="153.07086"
         y="556.823" /></flowRegion><flowPara
       id="flowPara971" /></flowRoot>  <rect
     style="opacity:1;fill:#ffffff;fill-opacity:1;stroke:none;stroke-width:4.04006815;stroke-linecap:round;stroke-miterlimit:4;stroke-dasharray:none;stroke-opacity:1"
     id="rect973"
     width="80.447746"
     height="23.53944"
     x="63.624836"
     y="202.4332"
     ry="0.29350844"
     transform="matrix(0.9999847,-0.00553247,-0.07226195,0.99738569,0,0)" />
  <g
     id="g14973"
     transform="translate(3.5874477,2.1524686)">
    <path
       inkscape:connector-curvature="0"
       style="opacity:1;fill:url(#linearGradient1509);fill-opacity:1;stroke:none;stroke-width:2.19670701;stroke-linecap:round;stroke-miterlimit:4;stroke-dasharray:none;stroke-opacity:1"
       d="M 56.749766,0.477748 A 28.09204,31.233827 51.541294 0 0 24.722269,30.839465 28.09204,31.233827 51.541294 0 0 27.301014,44.487681 H 79.009841 A 28.09204,31.233827 51.541294 0 0 84.698703,28.77413 28.09204,31.233827 51.541294 0 0 56.749766,0.477748 Z"
       id="path1466" />
    <rect
       rx="0"
       ry="7.3425059"
       y="41.737629"
       x="4.2763915"
       height="14.685012"
       width="95.326866"
       id="rect14657"
       style="opacity:1;fill:none;fill-opacity:1;stroke:#ffffff;stroke-width:4.3547411;stroke-linecap:round;stroke-miterlimit:4;stroke-dasharray:none;stroke-opacity:1" />
    <ellipse
       transform="matrix(0.94726718,-0.32044483,0.70229945,0.71188165,0,0)"
       ry="20.583321"
       rx="17.266426"
       cy="56.516632"
       cx="25.218372"
       id="ellipse1470"
       style="opacity:1;fill:url(#radialGradient1472);fill-opacity:1;stroke:none;stroke-width:1.39806318;stroke-linecap:round;stroke-miterlimit:4;stroke-dasharray:none;stroke-opacity:1" />
    <path
       sodipodi:nodetypes="ccscccccccc"
       inkscape:connector-curvature="0"
       id="path891"
       d="m 47.801648,17.544721 c -5.035411,2.28039 -3.83235,-6.251936 2.125246,-3.599545 5.720116,3.864722 5.814716,4.948205 7.997544,5.076732 1.715914,0.101025 0.462746,-5.008803 5.65127,-6.180591 4.101682,-0.05542 5.450885,3.194852 7.650894,5.42331 2.930159,5.05536 5.914398,10.110718 7.934262,15.166077 0.897326,2.255999 -1.609479,4.274837 -3.683764,1.775771 -2.597698,-6.106916 -5.132629,-11.735441 -8.973273,-16.221939 -1.897582,-1.706094 -2.661936,-4.628192 -4.911683,2.207721 -1.172689,1.678444 -2.757254,2.85985 -6.895248,0.959878 z"
       style="fill:#800080;stroke:#800080;stroke-width:0.1628847px;stroke-linecap:butt;stroke-linejoin:miter;stroke-opacity:1" />
    <path
       sodipodi:nodetypes="ccccc"
       inkscape:connector-curvature="0"
       id="path893"
       d="m 42.815482,20.407284 c 1.549744,-1.517143 2.414167,-0.885773 2.928119,-0.09599 l -0.708419,1.679787 C 44.073704,23.574105 42.75132,22.476925 42.6738,21.799106 Z"
       style="fill:#800080;stroke:#800080;stroke-width:0.1628847px;stroke-linecap:butt;stroke-linejoin:miter;stroke-opacity:1" />
    <path
       sodipodi:nodetypes="ccccc"
       inkscape:connector-curvature="0"
       id="path895"
       d="m 40.973599,28.676087 c 0.492165,-5.753468 4.32725,-3.387406 4.581082,0.143984 -0.358071,2.930013 -0.657606,5.848128 -0.09448,8.590908 -1.369555,4.371101 -5.332178,2.339976 -5.903466,-1.055865 0.355191,-0.906135 1.796427,-2.829713 1.416838,-7.679027 z"
       style="fill:#800080;stroke:#800080;stroke-width:0.1628847px;stroke-linecap:butt;stroke-linejoin:miter;stroke-opacity:1" />
    <path
       sodipodi:nodetypes="ccccccc"
       inkscape:connector-curvature="0"
       id="path897"
       d="m 47.45743,25.583863 c 0.654411,-0.379392 1.326127,-0.749994 3.447618,-0.383951 1.706668,0.952441 3.489769,1.438786 5.383967,1.247841 l 0.236136,0.911885 c -1.338265,0.279739 -3.011849,0.04836 -5.100604,-0.815897 -1.246656,-0.610222 -2.38857,-0.581704 -3.447618,-0.048 z"
       style="fill:#008000;stroke:#008000;stroke-width:0.1628847px;stroke-linecap:butt;stroke-linejoin:miter;stroke-opacity:1" />
    <path
       sodipodi:nodetypes="ccccccc"
       inkscape:connector-curvature="0"
       id="path899"
       d="m 47.51796,31.339586 c 1.365845,-0.753443 3.08353,-0.613029 4.817229,-0.431945 l 4.486639,1.247842 -0.188909,1.055865 -4.62832,-1.24784 c -3.308851,-0.658113 -2.897479,0.03398 -3.825447,0.239969 z"
       style="fill:#0000ff;stroke:#0000ff;stroke-width:0.1628847px;stroke-linecap:butt;stroke-linejoin:miter;stroke-opacity:1" />
    <path
       inkscape:connector-curvature="0"
       id="path901"
       d="m 59.272901,25.611242 -0.892665,0.431945 1.561624,11.470545 1.062667,-0.239974 z"
       style="fill:#241c1c;stroke:#241c1c;stroke-width:0.1628847px;stroke-linecap:butt;stroke-linejoin:miter;stroke-opacity:1" />
    <path
       sodipodi:nodetypes="ccccccccc"
       inkscape:connector-curvature="0"
       id="path903"
       d="m 71.509976,31.425266 0.283363,-0.959879 -3.778219,-0.815895 -3.022574,1.295835 c -0.8501,0.729534 -1.700201,0.695356 -2.550302,0.479939 l -0.141681,0.959879 2.691983,-0.191976 2.691983,-1.295836 c 1.835585,-0.108787 2.683903,0.28407 3.825447,0.527933 z"
       style="fill:#ff0000;stroke:#ff0000;stroke-width:0.1628847px;stroke-linecap:butt;stroke-linejoin:miter;stroke-opacity:1" />
    <path
       sodipodi:nodetypes="ccccccccc"
       inkscape:connector-curvature="0"
       id="path905"
       d="m 47.406706,39.31012 c 1.189208,-0.866222 1.006744,-2.505216 6.422976,-1.871763 7.816806,3.054014 8.746063,-0.08366 12.137522,-1.007875 4.512348,-0.428811 5.256753,1.184541 7.178619,2.159728 l -0.566735,0.863889 c -3.496291,-2.778013 -6.748837,-2.459657 -9.870594,-0.479935 -2.184891,0.909418 -4.512774,1.237566 -7.225838,0 -2.769963,-0.673793 -5.297066,-1.536632 -7.273076,0.863889 z"
       style="fill:#241c1c;stroke:#000000;stroke-width:0.1628847px;stroke-linecap:butt;stroke-linejoin:miter;stroke-opacity:1" />
    <g
       id="flowRoot1486"
       style="font-style:italic;font-variant:normal;font-weight:bold;font-stretch:normal;font-size:26.62224007px;line-height:1.25;font-family:sans-serif;-inkscape-font-specification:'sans-serif Bold Italic';letter-spacing:0px;word-spacing:0px;fill:#800080;fill-opacity:1;stroke:none"
       transform="matrix(0.3149945,-0.00156648,0.21890003,0.5142661,-143.63097,-216.2248)"
       aria-label="Tito Moreno Mosquera">
      <path
         sodipodi:nodetypes="ccccccccc"
         style="stroke-width:1.26513374"
         inkscape:connector-curvature="0"
         id="path14772"
         d="m 440.76735,514.5838 c -63.07609,4.32348 -173.33314,3.96771 -326.35098,-0.62894 -0.36179,9.41107 -8.40728,19.72303 5.43702,20.4623 -5.00496,4.83834 -10.81342,13.47515 -12.90584,4.54472 l 2.45227,-24.99802 -6.03025,0.011 c -3.802566,-1.71201 -6.324169,-3.51574 0.58254,-5.99453 l 2.84978,3.06653 z" />
      <path
         sodipodi:nodetypes="cccccccccc"
         inkscape:connector-curvature="0"
         id="path14774"
         d="m 128.79911,524.36407 -3.37978,14.59803 h -4.70569 l 3.37978,-14.59803 z m 2.76507,-6.8405 c 1.08964,0.0459 0.64489,3.93459 -2.03996,4.76099 -2.06845,1.24908 -3.65632,0.89798 -5.07983,-3.5e-4 0.0795,-1.91646 1.58243,-0.34851 2.81907,-2.12409 2.20753,-2.51021 2.27032,-3.60498 4.30072,-2.63655 z" />
      <path
         sodipodi:nodetypes="scsccccccccccccccscscccccss"
         inkscape:connector-curvature="0"
         id="path14776"
         d="m 135.41567,539.24809 c -1.62056,0 -2.77748,-0.26432 -3.47077,-0.79295 -0.69329,-0.5373 -1.03993,-1.33025 -1.03993,-2.37884 0,-0.27732 0.0217,-0.54597 0.065,-0.80595 0.0433,-0.25999 0.0997,-0.5633 0.16899,-0.90994 l 1.5859,-6.91554 h -1.92387 c -0.14218,-1.02809 -1.37296,-2.0595 0.71495,-3.0808 h 1.92387 l 0.96194,-4.17272 c 2.14782,-1.00146 3.80101,-1.15412 4.69269,0 -2.79326,1.77826 -3.24377,3.18951 -0.96194,4.17272 l 4.59721,-0.20204 c 0.50924,1.09677 0.95528,2.19334 -0.91845,3.28284 h -4.39371 l -1.20892,5.26465 c -0.0867,0.36397 -0.16899,0.73228 -0.24699,1.10493 -0.078,0.36397 -0.11699,0.67595 -0.11699,0.93593 0,0.51997 0.14299,0.88394 0.42897,1.09193 0.29465,0.19932 0.74528,0.29898 1.35191,0.29898 0.24265,0 0.55897,-0.0433 0.94894,-0.12999 0.39864,-0.0953 0.71495,-0.19932 0.94894,-0.31198 h 0.38997 l -0.72795,3.13279 c -0.52863,0.12999 -1.0876,0.22965 -1.67689,0.29898 -0.58063,0.078 -1.27825,0.117 -2.09286,0.117 z" />
      <path
         sodipodi:nodetypes="ssccscscccscsccscscccscscc"
         inkscape:connector-curvature="0"
         id="path14778"
         d="m 160.52175,526.36826 c 0,1.36924 -1.98928,5.99028 -2.44858,7.1862 -0.4593,1.19592 -1.10492,2.22285 -1.93687,3.0808 -0.86661,0.89261 -1.87188,1.58156 -3.0158,2.06686 -1.14393,0.47663 -2.47851,0.71495 -4.00374,0.71495 -2.17519,0 -3.84341,-0.51996 -5.00467,-1.55989 -1.16125,-1.03993 -1.74188,-2.47851 -1.74188,-4.31572 0,-1.29991 0.21665,-2.53483 0.64996,-3.70475 0.4333,-1.16993 1.07459,-2.20119 1.92387,-3.0938 0.82328,-0.87527 1.83288,-1.56423 3.0288,-2.06686 1.20459,-0.5113 2.95917,-1.17102 4.44974,-1.17102 2.18385,0 3.2813,0.51389 4.43389,1.54516 1.16126,1.0226 3.66528,-0.49314 3.66528,1.31807 z m -7.84322,8.12214 c 0.39864,-0.60663 0.69762,-1.26958 0.89694,-1.98887 0.20799,-0.71929 0.64204,-1.69489 0.64204,-2.72615 0,-0.89261 -0.52505,-1.47691 -0.91502,-1.95354 -0.38998,-0.4853 -1.00961,-0.72795 -1.85888,-0.72795 -0.65863,0 -1.23926,0.16032 -1.74189,0.48097 -0.49397,0.32065 -0.9316,0.77562 -1.31291,1.36491 -0.35531,0.54596 -0.63695,1.22191 -0.84494,2.02786 -0.19932,0.80595 -0.29898,1.63356 -0.29898,2.48284 0,0.9966 0.22098,1.71155 0.66295,2.14486 0.44197,0.42464 1.0486,0.63696 1.81988,0.63696 0.5633,0 1.10493,-0.15166 1.62489,-0.45497 0.51997,-0.31198 0.96194,-0.74095 1.32592,-1.28692 z" />
      <path
         sodipodi:nodetypes="cccccccccccccc"
         inkscape:connector-curvature="0"
         id="path14780"
         d="m 191.12358,539.16866 -8.61981,0.1916 c 4.57104,-3.08553 5.50162,-7.81118 5.27244,-13.05932 l -5.31665,8.11147 c -1.0483,0.81688 -2.23284,0.5204 -3.44477,0 l -1.71589,-8.64443 c -0.6632,4.46666 -4.43159,10.90488 -1.98959,13.39998 l -10.69253,-0.22081 c 6.31953,-0.0252 8.51484,-7.50504 10.12223,-17.00797 1.47222,-2.3415 3.26979,-2.02398 4.99073,-2.3328 l 2.11886,9.71036 7.61484,-8.69392 c 2.65558,-1.60763 3.38688,-0.86414 4.85134,-1.01644 -1.06373,6.52076 -7.0632,17.94168 -3.1912,19.56228 z" />
      <path
         inkscape:connector-curvature="0"
         id="path14782"
         d="m 211.33065,529.70672 q 0,2.05386 -0.68895,3.84774 -0.68896,1.79388 -1.93687,3.0808 -1.29992,1.33891 -3.01581,2.06686 -1.71588,0.71495 -4.00373,0.71495 -3.26278,0 -5.00467,-1.55989 -1.74188,-1.5599 -1.74188,-4.31572 0,-1.94987 0.64995,-3.70475 0.64996,-1.75489 1.92388,-3.0938 1.23491,-1.31291 3.0288,-2.06686 1.80688,-0.76695 4.04273,-0.76695 3.27578,0 5.00467,1.5469 1.74188,1.5339 1.74188,4.25072 z m -6.0836,4.78368 q 0.59796,-0.90994 0.89694,-1.98887 0.31198,-1.07893 0.31198,-2.62582 0,-1.33892 -0.58496,-2.05387 -0.58496,-0.72795 -1.85887,-0.72795 -0.98794,0 -1.74189,0.48097 -0.74095,0.48097 -1.31291,1.36491 -0.53297,0.81894 -0.84495,2.02786 -0.29898,1.20892 -0.29898,2.48284 0,1.4949 0.66296,2.14486 0.66296,0.63696 1.81988,0.63696 0.84494,0 1.62489,-0.45497 0.77995,-0.46797 1.32591,-1.28692 z" />
      <path
         sodipodi:nodetypes="ccssscccscssccscsccccscscccccs"
         inkscape:connector-curvature="0"
         id="path14786"
         d="m 237.8229,529.78471 c 0.026,-0.15599 0.0433,-0.29898 0.052,-0.42897 0.0173,-0.12999 0.026,-0.26432 0.026,-0.40297 0,-0.68463 -0.21232,-1.20893 -0.63696,-1.5729 -0.42464,-0.36397 -1.0356,-0.54596 -1.83288,-0.54596 -0.96193,0 -1.77221,0.25998 -2.43084,0.77995 -0.64996,0.51996 -1.14393,1.24358 -1.4819,2.17085 z m -3.57476,9.56737 c -2.48717,0 -4.40671,-0.5503 -5.75862,-1.65089 -1.35191,-1.10059 -2.02787,-2.62149 -2.02787,-4.5627 0,-1.32591 0.22099,-2.5435 0.66296,-3.65276 0.44197,-1.10926 1.07893,-2.0842 1.91087,-2.92481 0.79728,-0.81461 1.79388,-1.46023 2.9898,-1.93687 1.19593,-0.47663 2.50884,-0.71495 3.93874,-0.71495 2.17519,0 3.81309,0.44197 4.91368,1.32591 1.10926,0.87528 1.66389,2.17086 1.66389,3.88675 0,0.58929 -0.0607,1.16559 -0.18199,1.72888 -0.11266,0.5633 -0.26432,1.12226 -0.45497,1.67689 h -10.84128 v 0.15599 0.14299 c 0,1.01393 0.35531,1.80688 1.06593,2.37884 0.71062,0.57197 1.79821,0.85795 3.26278,0.85795 1.0226,0 1.98887,-0.17332 2.89881,-0.51997 0.91861,-0.34664 1.71589,-0.73228 2.39184,-1.15692 h 0.51997 c -2.1505,3.36241 -2.4852,3.83413 -0.87094,3.75675 -0.90994,0.39864 -1.86754,0.69762 -2.87281,0.89694 -1.00527,0.20799 -2.07553,0.31198 -3.21079,0.31198 z" />
      <path
         sodipodi:nodetypes="sscccccscsccccccccscss"
         inkscape:connector-curvature="0"
         id="path14788"
         d="m 260.77938,527.66585 c 0,0.25999 -0.0173,0.54164 -0.052,0.84495 -0.0347,0.30331 -0.091,0.61962 -0.16899,0.94893 -0.52479,3.40883 -4.1431,8.06954 -0.54848,9.81134 l -7.11653,0.0941 c 2.68734,-0.70277 3.67926,-6.85843 3.70145,-10.17283 0.12133,-0.53729 0.76744,1.63961 -0.19063,1.25517 0.84105,0.33034 0.0792,-0.93934 0.0792,-1.26865 0,-0.5633 -0.26955,-1.07666 -0.55553,-1.33664 -0.28598,-0.25999 -1.4704,-0.18933 -2.23301,-0.18933 -0.37265,0 -0.80162,0.0823 -1.28692,0.24699 -0.4853,0.15599 -1.03126,0.3943 -1.63789,0.71495 -0.21459,3.62638 -3.64423,10.19027 -0.401,10.65732 l -8.80285,0.0888 c 4.76716,0.0642 4.78039,-8.06293 5.4861,-14.99689 h 4.70568 l -0.37697,1.61189 c 0.96193,-0.63262 1.83721,-1.12659 2.62583,-1.4819 0.79728,-0.35531 1.67255,-0.53296 2.62582,-0.53296 1.30858,0 2.32685,0.31631 3.0548,0.94893 0.72795,0.63263 1.09193,1.55123 1.09193,2.75582 z" />
      <path
         inkscape:connector-curvature="0"
         id="path14790"
         d="m 279.49814,529.70672 q 0,2.05386 -0.68895,3.84774 -0.68896,1.79388 -1.93688,3.0808 -1.29991,1.33891 -3.0158,2.06686 -1.71588,0.71495 -4.00373,0.71495 -3.26279,0 -5.00467,-1.55989 -1.74189,-1.5599 -1.74189,-4.31572 0,-1.94987 0.64996,-3.70475 0.64996,-1.75489 1.92387,-3.0938 1.23492,-1.31291 3.0288,-2.06686 1.80688,-0.76695 4.04274,-0.76695 3.27578,0 5.00467,1.5469 1.74188,1.5339 1.74188,4.25072 z m -6.0836,4.78368 q 0.59796,-0.90994 0.89694,-1.98887 0.31198,-1.07893 0.31198,-2.62582 0,-1.33892 -0.58496,-2.05387 -0.58496,-0.72795 -1.85888,-0.72795 -0.98793,0 -1.74188,0.48097 -0.74095,0.48097 -1.31291,1.36491 -0.53297,0.81894 -0.84495,2.02786 -0.29898,1.20892 -0.29898,2.48284 0,1.4949 0.66296,2.14486 0.66295,0.63696 1.81988,0.63696 0.84494,0 1.62489,-0.45497 0.77995,-0.46797 1.32591,-1.28692 z" />
      <path
         inkscape:connector-curvature="0"
         id="path14794"
         d="m 332.06667,529.70672 q 0,2.05386 -0.68896,3.84774 -0.68895,1.79388 -1.93687,3.0808 -1.29991,1.33891 -3.0158,2.06686 -1.71589,0.71495 -4.00374,0.71495 -3.26278,0 -5.00466,-1.55989 -1.74189,-1.5599 -1.74189,-4.31572 0,-1.94987 0.64996,-3.70475 0.64995,-1.75489 1.92387,-3.0938 1.23492,-1.31291 3.0288,-2.06686 1.80688,-0.76695 4.04273,-0.76695 3.27579,0 5.00467,1.5469 1.74189,1.5339 1.74189,4.25072 z m -6.0836,4.78368 q 0.59796,-0.90994 0.89694,-1.98887 0.31198,-1.07893 0.31198,-2.62582 0,-1.33892 -0.58496,-2.05387 -0.58496,-0.72795 -1.85888,-0.72795 -0.98793,0 -1.74188,0.48097 -0.74095,0.48097 -1.31292,1.36491 -0.53296,0.81894 -0.84494,2.02786 -0.29898,1.20892 -0.29898,2.48284 0,1.4949 0.66295,2.14486 0.66296,0.63696 1.81988,0.63696 0.84495,0 1.6249,-0.45497 0.77995,-0.46797 1.32591,-1.28692 z" />
      <path
         sodipodi:nodetypes="scccccccscscccscscccccscscccscs"
         inkscape:connector-curvature="0"
         id="path14796"
         d="m 339.1122,539.36508 c -1.24791,0 -2.45683,-0.11699 -3.62676,-0.35098 -1.16992,-0.23399 -5.0126,0.59867 -5.63656,0.28669 5.00607,-1.05022 6.86958,-2.19184 5.05864,-4.34171 l 0.68209,0.20343 c 0.19065,0.16465 -1.04011,-0.46846 -0.75413,-0.26914 0.29465,0.19932 0.71062,0.40731 1.24792,0.62396 0.45931,0.19932 0.99227,0.37264 1.5989,0.51997 0.60663,0.13865 1.26092,0.20798 1.96287,0.20798 1.04859,0 1.83287,-0.12132 2.35284,-0.36397 0.52863,-0.24265 0.79295,-0.5893 0.79295,-1.03993 0,-0.34665 -0.18632,-0.61096 -0.55896,-0.79295 -0.37265,-0.18199 -1.14393,-0.40731 -2.31385,-0.67596 -1.98454,-0.4593 -3.34512,-1.01393 -4.08173,-1.66389 -0.72795,-0.64995 -1.09193,-1.46023 -1.09193,-2.43083 0,-1.64656 0.73662,-2.94214 2.20985,-3.88675 1.47324,-0.95327 3.46644,-1.4299 5.97961,-1.4299 1.09193,0 2.18385,0.11266 3.27578,0.33797 1.09193,0.21665 1.89354,0.45064 2.40484,0.70196 -0.47671,1.08993 -2.19863,0.80887 -1.68183,3.48658 l 0.75833,2.0301 c -0.61529,-0.47663 -1.69799,-2.6872 -2.57327,-2.98185 -0.86661,-0.30331 -1.75921,-0.45497 -2.67782,-0.45497 -0.9966,0 -1.76355,0.12133 -2.30085,0.36398 -0.52863,0.23398 -0.79294,0.59795 -0.79294,1.09192 0,0.38131 0.22965,0.67596 0.68895,0.88395 0.4593,0.19932 1.18292,0.4073 2.17086,0.62395 1.83721,0.39864 3.15878,0.90127 3.96473,1.5079 0.81461,0.60663 1.22192,1.45591 1.22192,2.54784 0,1.62922 -0.74528,2.91613 -2.23585,3.86074 -1.49057,0.93594 -3.50543,1.40391 -6.0446,1.40391 z" />
      <path
         style="stroke-width:1.12794447"
         sodipodi:nodetypes="ccscccscsccccccccccscscccscccc"
         inkscape:connector-curvature="0"
         id="path14798"
         d="m 361.51933,528.80451 c -0.25532,-0.15416 -0.58821,-0.29171 -0.99866,-0.41266 -0.41073,-0.13198 -0.77207,-0.19784 -1.08402,-0.19758 -0.83186,6.9e-4 -1.53215,0.22731 -2.10088,0.67987 -0.56006,0.45256 -1.01744,1.02082 -1.37214,1.70475 -0.36366,0.67293 -0.64152,1.47811 -0.8336,2.41553 -0.18342,0.93741 -0.26184,1.91333 -0.23527,2.92777 0.0269,1.02546 0.22529,1.8192 0.59529,2.38125 0.37001,0.56205 1.02293,0.8427 1.95877,0.84192 0.4246,-3.5e-4 0.86768,-0.12198 1.32925,-0.36498 0.47023,-0.24297 0.91332,-0.53003 1.32924,-0.86119 z m 5.38458,-4.33793 c -0.89161,8.87957 -6.32583,25.65538 -1.58049,26.09906 l -180.14238,-5.04408 c 10.60158,-5.90164 193.2519,11.89098 174.41501,-4.29395 -0.3648,0.29803 -0.75935,0.61812 -1.18367,0.9603 -0.41592,0.33114 -0.77769,0.57954 -1.08531,0.74519 -0.43557,0.24295 -0.84718,0.4087 -1.2348,0.49724 -0.38762,0.0885 -0.80673,0.13298 -1.25732,0.13335 -1.41243,0.001 -2.55855,-0.58228 -3.43835,-1.75038 -0.87114,-1.1681 -1.33487,-2.82722 -1.39119,-4.97737 -0.0485,-1.85244 0.14487,-3.56723 0.58015,-5.1444 0.43529,-1.57717 1.03205,-2.94497 1.79025,-4.1034 0.75849,-1.14739 1.64509,-2.03577 2.6598,-2.66513 1.0144,-0.64038 2.05018,-0.96102 3.10734,-0.9619 0.78853,-6.5e-4 1.4936,0.12002 2.11518,0.36212 0.62996,0.23104 1.22338,0.55584 1.78026,0.97439 l 0.30329,-0.82726 z" />
      <path
         sodipodi:nodetypes="cccccccscsccccccscscccc"
         inkscape:connector-curvature="0"
         id="path14800"
         d="m 387.51924,524.06519 c -4.98485,0.57497 -5.04088,7.708 -5.05489,14.89691 h -4.70569 l 0.37697,-1.61189 c -0.46797,0.30331 -0.92727,0.58929 -1.3779,0.85794 -0.44197,0.25999 -0.86228,0.46797 -1.26092,0.62396 -0.50263,0.20799 -0.96194,0.34665 -1.37791,0.41598 -0.41597,0.078 -0.82761,0.11699 -1.23492,0.11699 -1.28258,0 -2.29651,-0.30765 -3.0418,-0.92294 -0.73661,-0.61529 -1.10492,-1.52523 -1.10492,-2.72982 0,-0.32931 0.0173,-0.63263 0.052,-0.90994 0.0347,-0.28598 0.7711,-3.43307 0.84909,-3.77105 0.12782,-3.05539 0.37839,1.16497 -0.52562,-6.57215 l 7.23068,-0.0937 c -2.73543,6.24066 -0.38627,0.63618 -2.23021,5.51626 -0.12998,0.55463 -1.13551,2.95373 -0.64392,2.34081 -0.0607,0.39864 -0.18285,1.85095 -0.18285,2.12826 0,0.57196 0.67222,0.68557 0.94953,0.94556 0.27732,0.25131 0.80162,0.37697 1.5729,0.37697 0.38131,0 0.81894,-0.0823 1.31291,-0.24698 0.50263,-0.16466 1.04426,-0.40298 1.62489,-0.71495 1.6272,-2.17462 3.86971,-5.79433 0.10876,-10.35427 z" />
      <path
         inkscape:connector-curvature="0"
         id="path14802"
         d="m 398.70026,529.78471 q 0.039,-0.23398 0.052,-0.42897 0.026,-0.19499 0.026,-0.40297 0,-1.02694 -0.63695,-1.5729 -0.63696,-0.54596 -1.83288,-0.54596 -1.44291,0 -2.43084,0.77995 -0.97494,0.77994 -1.4819,2.17085 z m -3.57476,9.56737 q -3.73076,0 -5.75862,-1.65089 -2.02787,-1.65089 -2.02787,-4.5627 0,-1.98887 0.66296,-3.65276 0.66295,-1.66389 1.91087,-2.92481 1.19592,-1.22191 2.9898,-1.93687 1.79388,-0.71495 3.93874,-0.71495 3.26279,0 4.91368,1.32591 1.66389,1.31292 1.66389,3.88675 0,0.88394 -0.18199,1.72888 -0.16899,0.84495 -0.45497,1.67689 h -10.84128 q 0,0.078 0,0.15599 0,0.065 0,0.14299 0,1.5209 1.06593,2.37884 1.06593,0.85795 3.26278,0.85795 1.5339,0 2.89881,-0.51997 1.37791,-0.51996 2.39184,-1.15692 h 0.51997 l -0.87095,3.75675 q -1.36491,0.59796 -2.87281,0.89694 -1.5079,0.31198 -3.21078,0.31198 z" />
      <path
         sodipodi:nodetypes="cccsccccccccsccc"
         inkscape:connector-curvature="0"
         id="path14804"
         d="m 417.51002,528.82278 h -0.41598 c -0.20798,-0.0693 -0.50263,-0.12133 -0.88394,-0.15599 -0.38131,-0.0347 -0.75828,-0.052 -1.13092,-0.052 -0.61529,0 -1.20892,0.0477 -1.78088,0.14299 -0.57197,0.0867 -1.16126,0.22965 -1.76789,0.42897 -0.34392,3.5247 -2.67516,10.31973 -0.54953,9.78057 l -7.67371,-0.009 c 5.40542,-3.83278 3.11077,-9.72401 4.63548,-14.59421 h 4.70569 l -0.49397,2.14486 c 0.88394,-0.64996 1.76355,-1.17859 2.63883,-1.5859 0.88394,-0.40731 1.77221,-0.61096 2.66482,-0.61096 0.16465,0 0.34664,0.004 0.54596,0.013 0.20799,0.009 0.38998,0.0217 0.54597,0.039 -1.34134,1.75701 -2.58239,3.48672 -1.03993,4.45871 z" />
      <path
         sodipodi:nodetypes="csccscsccccsccscscccccscsccccsscsccccc"
         inkscape:connector-curvature="0"
         id="path14806"
         d="m 428.26031,532.07256 c -0.83195,0.0693 -1.6119,0.15165 -2.33985,0.24698 -0.72795,0.0953 -1.34758,0.23399 -1.85887,0.41598 -0.52863,0.19065 -0.93161,0.4593 -1.20892,0.80594 -0.27732,0.34665 -0.41598,0.80595 -0.41598,1.37791 0,0.50263 0.18199,0.85794 0.54597,1.06593 0.37264,0.19932 0.90994,0.29898 1.61189,0.29898 0.4593,0 0.94893,-0.10399 1.4689,-0.31198 0.52863,-0.21665 1.0226,-0.48963 1.48191,-0.81894 z m -1.23492,5.34265 c -0.29465,0.19065 -0.64996,0.4203 -1.06593,0.68895 -0.41597,0.26865 -0.80161,0.48097 -1.15692,0.63696 -0.48531,0.19932 -0.94028,0.35098 -1.36491,0.45497 -0.42464,0.10399 -1.01394,0.15599 -1.76789,0.15599 -1.21325,0 -2.20552,-0.33798 -2.9768,-1.01393 -0.76261,-0.68463 -1.14392,-1.5729 -1.14392,-2.66483 0,-1.15259 0.27298,-2.12752 0.81894,-2.9248 0.54597,-0.80595 1.35625,-1.44724 2.43084,-1.92388 1.00527,-0.45063 2.20119,-0.77561 3.58776,-0.97493 1.39525,-0.19932 2.90315,-0.34664 4.52371,-0.44197 0.009,-0.052 0.026,-0.13433 0.052,-0.24699 0.026,-0.12133 0.039,-0.25565 0.039,-0.40297 0,-0.61529 -0.28598,-1.04427 -0.85794,-1.28692 -0.57197,-0.25131 -1.42558,-0.37697 -2.56083,-0.37697 -0.77129,0 -1.6249,0.12999 -2.56084,0.38997 -0.92727,0.25999 -1.62489,0.47664 -2.09286,0.64996 h -0.42897 l 0.68896,-3.45777 c 0.54596,-0.13866 1.3909,-0.29465 2.53483,-0.46797 1.14392,-0.17332 2.28351,-0.25998 3.41877,-0.25998 2.28785,0 3.96474,0.29898 5.03067,0.89694 1.07459,0.59796 1.61189,1.52523 1.61189,2.78181 0,0.17333 -0.0173,0.39865 -0.052,0.67596 -0.026,0.27731 -0.065,0.51996 -0.117,0.72795 0.32423,3.26791 -5.49861,6.06647 1.46685,9.84145 l -8.40839,0.0899 z" />
      <path
         d="m 313.31166,540.68724 -8.61981,0.1916 c 4.57104,-3.08553 5.50162,-7.81118 5.27244,-13.05932 l -5.31665,8.11147 c -1.0483,0.81688 -2.23284,0.5204 -3.44477,0 l -1.71589,-8.64443 c -0.6632,4.46666 -4.43159,10.90488 -1.98959,13.39998 l -10.69253,-0.22081 c 6.31953,-0.0252 8.51484,-7.50504 10.12223,-17.00797 1.47222,-2.3415 3.26979,-2.02398 4.99073,-2.3328 l 2.11886,9.71036 7.61484,-8.69392 c 2.65558,-1.60763 3.38688,-0.86414 4.85134,-1.01644 -1.06373,6.52076 -7.0632,17.94168 -3.1912,19.56228 z"
         id="path14937"
         inkscape:connector-curvature="0"
         sodipodi:nodetypes="cccccccccccccc" />
      <path
         d="m 225.86102,529.38541 h -0.41598 c -0.20798,-0.0693 -0.50263,-0.12133 -0.88394,-0.15599 -0.38131,-0.0347 -0.75828,-0.052 -1.13092,-0.052 -0.61529,0 -1.20892,0.0477 -1.78088,0.14299 -0.57197,0.0867 -1.16126,0.22965 -1.76789,0.42897 -0.34392,3.5247 -2.67516,10.31973 -0.54953,9.78057 l -7.67371,-0.009 c 5.40542,-3.83278 3.11077,-9.72401 4.63548,-14.59421 h 4.70569 l -0.49397,2.14486 c 0.88394,-0.64996 1.76355,-1.17859 2.63883,-1.5859 0.88394,-0.40731 1.77221,-0.61096 2.66482,-0.61096 0.16465,0 0.34664,0.004 0.54596,0.013 0.20799,0.009 0.38998,0.0217 0.54597,0.039 -1.34134,1.75701 -2.58239,3.48672 -1.03993,4.45871 z"
         id="path14939"
         inkscape:connector-curvature="0"
         sodipodi:nodetypes="cccsccccccccsccc" />
    </g>
    <path
       sodipodi:nodetypes="csscc"
       inkscape:connector-curvature="0"
       id="path1464"
       d="m 27.074449,44.200168 c -5.406997,-16.674519 0.510377,-27.392814 7.452303,-33.734216 15.527647,-14.1843818 37.20506,-13.6853546 45.096484,4.474218 3.348423,7.705327 3.866106,16.933801 -3.480398,29.259998 z"
       style="fill:none;stroke:#000080;stroke-width:0.16103771px;stroke-linecap:butt;stroke-linejoin:miter;stroke-opacity:1" />
    <path
       sodipodi:nodetypes="cccccccccccc"
       inkscape:connector-curvature="0"
       id="path889"
       d="m 21.063776,9.145787 c 23.773027,2.439825 33.49173,-5.430192 39.529615,-5.903251 4.89327,0.800076 6.420521,4.54578 7.225838,5.451425 0.533811,1.204692 0.380619,2.176671 -2.266928,2.303709 -9.870594,0.499547 -19.741199,0.378935 -29.611782,0.163862 -0.17973,1.312775 -0.128524,5.069 0.04718,5.567293 l 1.464054,14.686133 c -0.132054,7.901279 -4.719917,10.261197 -6.123396,10.359742 -0.423901,0.08919 -2.135254,0.110992 -2.798485,-0.530769 3.273077,-4.410854 8.455672,-29.412532 3.634241,-29.866901 L 22.291658,11.35351 C 20.755687,11.499966 20.356531,9.610208 21.063729,9.145797 Z"
       style="fill:#000080;stroke:#000080;stroke-width:0.1628847px;stroke-linecap:butt;stroke-linejoin:miter;stroke-opacity:1" />
  </g>
</svg>
